<?xml version="1.0" standalone="no"?>
<!DOCTYPE svg PUBLIC "-//W3C//DTD SVG 20010904//EN"
 "http://www.w3.org/TR/2001/REC-SVG-20010904/DTD/svg10.dtd">
<svg version="1.0" xmlns="http://www.w3.org/2000/svg"
 width="150.000000pt" height="150.000000pt" viewBox="0 0 150.000000 150.000000"
 preserveAspectRatio="xMidYMid meet">
<metadata>
Created by potrace 1.14, written by Peter Selinger 2001-2017
</metadata>
<g transform="translate(0.000000,150.000000) scale(0.100000,-0.100000)"
fill="#000000" stroke="none">
<path d="M183 1163 c-10 -25 27 -194 57 -260 17 -36 46 -87 65 -114 l35 -49
-39 -58 c-21 -31 -45 -70 -54 -87 -25 -51 -54 -157 -62 -227 l-7 -68 50 0 51
0 6 58 c10 85 23 129 61 202 35 69 57 100 68 100 4 0 20 -10 36 -22 l30 -22
-24 -30 c-39 -51 -67 -115 -82 -185 -21 -102 -22 -101 35 -101 53 0 61 8 61
60 0 117 122 262 257 305 l52 17 64 -30 c83 -39 137 -87 174 -159 34 -63 47
-110 45 -160 -1 -33 -1 -33 48 -33 27 0 51 4 54 9 3 4 1 37 -5 72 -11 70 -46
155 -84 205 l-24 31 30 22 c29 22 31 22 50 5 11 -10 35 -50 55 -88 31 -65 43
-109 60 -219 l5 -38 46 3 c56 4 58 10 37 123 -19 98 -44 160 -101 248 l-45 67
30 38 c69 87 119 222 124 337 l3 60 -47 1 c-27 0 -48 0 -48 0 0 -1 -3 -26 -6
-56 -8 -87 -40 -181 -84 -249 -44 -67 -39 -66 -92 -23 -16 13 -16 16 7 46 39
51 74 137 83 204 5 34 6 65 3 71 -5 7 -59 9 -92 2 -3 0 -9 -27 -11 -59 -13
-137 -124 -267 -260 -303 -57 -16 -94 -5 -174 48 -95 62 -154 176 -163 316 -1
10 -89 9 -96 -2 -9 -16 14 -142 36 -191 11 -25 32 -62 47 -84 l26 -38 -29 -24
c-35 -28 -43 -23 -84 50 -36 63 -68 162 -76 238 l-6 57 -45 -1 c-29 0 -48 -6
-51 -15z m840 -406 c23 -19 22 -22 -13 -47 l-29 -21 -35 23 c-20 13 -36 25
-36 28 0 3 15 15 33 26 32 22 41 21 80 -9z m-429 1 l34 -22 -34 -24 c-38 -25
-61 -23 -90 9 -18 20 -18 21 6 40 32 24 43 24 84 -3z"/>
</g>
</svg>
