<?xml version="1.0" encoding="utf-8"?>
<!-- Generator: Adobe Illustrator 26.5.1, SVG Export Plug-In . SVG Version: 6.00 Build 0)  -->
<svg version="1.1" xmlns="http://www.w3.org/2000/svg" xmlns:xlink="http://www.w3.org/1999/xlink" x="0px" y="0px"
	 viewBox="0 0 90.39 20.13" style="enable-background:new 0 0 90.39 20.13;" xml:space="preserve">
<style type="text/css">
	.st0{display:none;}
	.st1{display:inline;fill:none;stroke:#E30613;stroke-width:0.01;stroke-linecap:round;stroke-linejoin:round;}
	.st2{display:inline;}
	.st3{fill:none;stroke:#000000;stroke-width:0.0241;stroke-miterlimit:10;}
	.st4{display:inline;fill:#CCCCCC;}
	.st5{display:inline;fill:#F2EDE9;}
	.st6{display:inline;fill:none;stroke:#CCCCCC;stroke-width:0.05;stroke-miterlimit:10;}
	.st7{fill:#FFFFFF;}
</style>
<g id="pole_ochronne" class="st0">
	<line class="st1" x1="976.22" y1="425.06" x2="975.55" y2="425.06"/>
	<g class="st2">
		<text transform="matrix(1 0 0 1 954.2538 37.191)" style="font-family:'Avenir-Light'; font-size:1.0779px;">5.</text>
		<circle class="st3" cx="954.55" cy="36.77" r="0.81"/>
	</g>
	<g class="st2">
		<text transform="matrix(1 0 0 1 954.2538 1.8297)" style="font-family:'Avenir-Light'; font-size:1.0779px;">2.</text>
		<circle class="st3" cx="954.55" cy="1.41" r="0.81"/>
	</g>
	<path class="st4" d="M20.91,11.24L20.91,11.24L20.91,11.24z"/>
	<path class="st5" d="M21.18,8.69c-0.79-0.72-1.24-1.73-1.24-2.79V5.78h-0.92V5.9c0,1.09,0.41,2.17,1.15,3.03
		c-0.24,0.16-0.48,0.34-0.7,0.53c-0.86-1.03-1.34-2.31-1.34-3.61V5.78h-0.92v0.08c0,1.55,0.57,3.06,1.6,4.26
		c-0.66,0.76-1.13,1.65-1.38,2.58c-0.15,0.55-0.22,1.12-0.22,1.7v0.08h0.92V14.4c0-0.5,0.06-0.99,0.19-1.46
		c0.21-0.77,0.6-1.52,1.14-2.16c0.23,0.2,0.48,0.39,0.74,0.56c-0.76,0.87-1.18,1.95-1.18,3.06v0.08h0.92V14.4
		c0-1.07,0.46-2.1,1.27-2.81l0.02-0.02c0.5-0.44,1-0.74,1.66-0.87V9.58C22.24,9.43,21.66,9.12,21.18,8.69z M20.89,10.69
		c-0.26-0.16-0.52-0.35-0.77-0.56c0.24-0.2,0.48-0.39,0.73-0.54c0.3,0.23,0.6,0.42,0.91,0.56C21.46,10.29,21.17,10.47,20.89,10.69z"
		/>
	<path class="st5" d="M86.42,11.55c0.79,0.72,1.24,1.73,1.24,2.79v0.13h0.92v-0.13c0-1.09-0.41-2.17-1.15-3.03
		c0.24-0.16,0.48-0.34,0.7-0.53c0.86,1.03,1.34,2.31,1.34,3.61v0.08h0.92v-0.08c0-1.55-0.57-3.06-1.6-4.26
		c0.66-0.76,1.13-1.65,1.38-2.58c0.15-0.55,0.22-1.12,0.22-1.7V5.76h-0.92v0.08c0,0.5-0.06,0.99-0.19,1.46
		c-0.21,0.77-0.6,1.52-1.14,2.16c-0.23-0.2-0.48-0.39-0.74-0.56c0.76-0.87,1.18-1.95,1.18-3.06V5.76h-0.92v0.08
		c0,1.07-0.46,2.1-1.27,2.81l-0.02,0.02c-0.5,0.44-1,0.74-1.66,0.87v1.12C85.37,10.81,85.95,11.11,86.42,11.55z M86.72,9.55
		c0.26,0.16,0.52,0.35,0.77,0.56c-0.24,0.2-0.48,0.39-0.73,0.54c-0.3-0.23-0.6-0.42-0.91-0.56C86.14,9.94,86.44,9.77,86.72,9.55z"/>
	<path class="st5" d="M28.67,4.02c0.72-0.79,1.73-1.24,2.79-1.24h0.13V1.86h-0.13c-1.09,0-2.17,0.41-3.03,1.15
		c-0.16-0.24-0.34-0.48-0.53-0.7c1.03-0.86,2.31-1.34,3.61-1.34h0.08V0.05H31.5c-1.55,0-3.06,0.57-4.26,1.6
		C26.48,1,25.59,0.52,24.66,0.27c-0.55-0.15-1.12-0.22-1.7-0.22h-0.08v0.92h0.08c0.5,0,0.99,0.06,1.46,0.19
		c0.77,0.21,1.52,0.6,2.16,1.14c-0.2,0.23-0.39,0.48-0.56,0.74c-0.87-0.76-1.95-1.18-3.06-1.18h-0.08v0.92h0.08
		c1.07,0,2.1,0.46,2.81,1.27l0.02,0.02c0.44,0.5,0.74,1,0.87,1.66h1.12C27.93,5.07,28.24,4.49,28.67,4.02z M26.67,3.72
		c0.16-0.26,0.35-0.52,0.56-0.77c0.2,0.24,0.39,0.48,0.54,0.73c-0.23,0.3-0.42,0.6-0.56,0.91C27.07,4.3,26.89,4,26.67,3.72z"/>
	<path class="st5" d="M25.8,16.18c-0.72,0.78-1.73,1.23-2.79,1.23h-0.13v0.92h0.13c1.09,0,2.17-0.41,3.03-1.15
		c0.16,0.24,0.34,0.48,0.53,0.7c-1.03,0.86-2.31,1.33-3.61,1.33h-0.08v0.92h0.08c1.55,0,3.06-0.57,4.26-1.6
		c0.76,0.65,1.65,1.13,2.58,1.38c0.55,0.15,1.12,0.22,1.7,0.22h0.08v-0.92h-0.08c-0.5,0-0.99-0.06-1.46-0.19
		c-0.77-0.2-1.52-0.6-2.16-1.13c0.2-0.23,0.39-0.48,0.56-0.73c0.87,0.76,1.95,1.17,3.06,1.17h0.08v-0.92h-0.08
		c-1.07,0-2.1-0.46-2.81-1.26l-0.02-0.02c-0.44-0.5-0.74-1-0.87-1.66h-1.12C26.54,15.13,26.23,15.71,25.8,16.18z M27.8,16.48
		c-0.16,0.26-0.35,0.52-0.56,0.77c-0.2-0.24-0.39-0.48-0.54-0.73c0.23-0.3,0.42-0.6,0.56-0.9C27.4,15.9,27.58,16.19,27.8,16.48z"/>
	<path class="st5" d="M78.92,16.17c-0.72,0.79-1.73,1.24-2.79,1.24H76v0.92h0.13c1.09,0,2.17-0.41,3.03-1.15
		c0.16,0.24,0.34,0.48,0.53,0.7c-1.03,0.86-2.31,1.34-3.61,1.34H76v0.92h0.08c1.55,0,3.06-0.57,4.26-1.6
		c0.76,0.66,1.65,1.13,2.58,1.38c0.55,0.15,1.12,0.22,1.7,0.22h0.08v-0.92h-0.08c-0.5,0-0.99-0.06-1.46-0.19
		c-0.77-0.21-1.52-0.6-2.16-1.14c0.2-0.23,0.39-0.48,0.56-0.74c0.87,0.76,1.95,1.18,3.06,1.18h0.08V17.4h-0.08
		c-1.07,0-2.1-0.46-2.81-1.27l-0.02-0.02c-0.44-0.5-0.74-1-0.87-1.66h-1.12C79.65,15.11,79.35,15.69,78.92,16.17z M80.91,16.47
		c-0.16,0.26-0.35,0.52-0.56,0.77c-0.2-0.24-0.39-0.48-0.54-0.73c0.23-0.3,0.42-0.6,0.56-0.91C80.52,15.89,80.7,16.18,80.91,16.47z"
		/>
	<path class="st5" d="M81.8,4.02c0.72-0.79,1.73-1.24,2.79-1.24h0.13V1.86h-0.13c-1.09,0-2.17,0.41-3.03,1.15
		c-0.16-0.24-0.34-0.48-0.53-0.7c1.03-0.86,2.31-1.34,3.61-1.34h0.08V0.05h-0.08c-1.55,0-3.06,0.57-4.26,1.6
		C79.61,1,78.72,0.52,77.79,0.27c-0.55-0.15-1.12-0.22-1.7-0.22h-0.08v0.92h0.08c0.5,0,0.99,0.06,1.46,0.19
		c0.77,0.21,1.52,0.6,2.16,1.14c-0.2,0.23-0.39,0.48-0.56,0.74c-0.87-0.76-1.95-1.18-3.06-1.18h-0.08v0.92h0.08
		c1.07,0,2.1,0.46,2.81,1.27l0.02,0.02c0.44,0.5,0.74,1,0.87,1.66h1.12C81.06,5.07,81.37,4.49,81.8,4.02z M79.8,3.72
		c0.16-0.26,0.35-0.52,0.56-0.77c0.2,0.24,0.39,0.48,0.54,0.73c-0.23,0.3-0.42,0.6-0.56,0.91C80.2,4.3,80.02,4,79.8,3.72z"/>
	<path class="st5" d="M1.71,11.56c0.79,0.72,1.24,1.73,1.24,2.79v0.13h0.92v-0.13c0-1.09-0.41-2.17-1.15-3.03
		c0.24-0.16,0.48-0.34,0.7-0.53c0.86,1.03,1.34,2.31,1.34,3.61v0.08h0.92v-0.08c0-1.55-0.57-3.06-1.6-4.26
		C4.72,9.37,5.2,8.48,5.45,7.55C5.6,7,5.67,6.42,5.67,5.85V5.77H4.75v0.08c0,0.5-0.06,0.99-0.19,1.46c-0.21,0.77-0.6,1.52-1.14,2.16
		c-0.23-0.2-0.48-0.39-0.74-0.56c0.76-0.87,1.18-1.95,1.18-3.06V5.77H2.94v0.08c0,1.07-0.46,2.1-1.27,2.81L1.66,8.68
		c-0.5,0.44-1,0.74-1.66,0.87v1.12C0.65,10.82,1.23,11.12,1.71,11.56z M2.01,9.56c0.26,0.16,0.52,0.35,0.77,0.56
		c-0.24,0.2-0.48,0.39-0.73,0.54c-0.3-0.23-0.6-0.42-0.91-0.56C1.43,9.95,1.72,9.78,2.01,9.56z"/>
	<line class="st6" x1="0" y1="0" x2="0" y2="20.14"/>
	<line class="st6" x1="22.89" y1="0" x2="22.89" y2="20.14"/>
	<line class="st6" x1="90.39" y1="5.75" x2="0" y2="5.75"/>
	<line class="st6" x1="90.39" y1="0" x2="0" y2="0"/>
	<line class="st6" x1="90.39" y1="20.14" x2="0" y2="20.14"/>
	<line class="st6" x1="90.39" y1="14.49" x2="0" y2="14.49"/>
	<line class="st6" x1="84.71" y1="0" x2="84.71" y2="20.14"/>
	<line class="st6" x1="90.39" y1="0" x2="90.39" y2="20.14"/>
</g>
<g id="logo">
	<g>
		<path class="st7" d="M17.22,5.86V5.78H16.3v0.08c0,0.49-0.06,0.98-0.19,1.46c-0.21,0.77-0.6,1.52-1.14,2.16
			c-0.23-0.2-0.48-0.39-0.74-0.56c0.76-0.87,1.18-1.95,1.18-3.06V5.78h-0.92v0.08c0,1.07-0.46,2.1-1.27,2.81
			c-0.53,0.47-1.17,0.78-1.87,0.91c-0.65-0.15-1.25-0.46-1.72-0.89C8.85,7.98,8.4,6.96,8.4,5.9V5.78H7.48V5.9
			c0,1.09,0.41,2.17,1.15,3.03C8.38,9.1,8.15,9.28,7.93,9.47C7.07,8.44,6.59,7.16,6.59,5.86V5.78H5.67v0.08
			c0,1.55,0.57,3.06,1.6,4.26c-0.66,0.76-1.13,1.65-1.38,2.58c-0.15,0.55-0.22,1.12-0.22,1.7v0.08h0.92V14.4
			c0-0.5,0.06-0.99,0.19-1.46c0.21-0.77,0.6-1.52,1.14-2.16c0.23,0.2,0.48,0.39,0.74,0.56c-0.76,0.87-1.18,1.95-1.18,3.06v0.08H8.4
			V14.4c0-1.07,0.46-2.1,1.27-2.81l0.02-0.02c0.52-0.46,1.16-0.77,1.86-0.9c0.65,0.15,1.25,0.46,1.72,0.89
			c0.79,0.72,1.24,1.73,1.24,2.79v0.13h0.92v-0.13c0-1.09-0.41-2.17-1.15-3.03c0.25-0.16,0.48-0.34,0.7-0.53
			c0.86,1.03,1.34,2.3,1.34,3.61v0.08h0.92V14.4c0-1.55-0.57-3.06-1.6-4.26c0.66-0.76,1.13-1.65,1.38-2.58
			C17.15,7,17.22,6.43,17.22,5.86z M14.32,10.13c-0.23,0.2-0.47,0.38-0.73,0.54c-0.3-0.23-0.6-0.42-0.91-0.56
			c0.29-0.14,0.59-0.32,0.87-0.54C13.83,9.74,14.08,9.92,14.32,10.13z M10.21,10.15c-0.29,0.14-0.59,0.32-0.87,0.53
			c-0.26-0.16-0.52-0.35-0.77-0.56c0.24-0.2,0.48-0.39,0.73-0.54C9.6,9.82,9.9,10.01,10.21,10.15z M9.36,11.24L9.36,11.24
			L9.36,11.24L9.36,11.24z"/>
		<g>
			<path class="st7" d="M28.66,7.73v5.07H27.5v-2.06h-3.45v2.06h-1.16V7.73h1.16v1.99h3.45V7.73H28.66z"/>
			<path class="st7" d="M30.99,7.73l1.71,2.37l1.7-2.37h1.31l-2.44,3.34v1.73h-1.16v-1.73l-2.44-3.34H30.99z"/>
			<path class="st7" d="M42.35,9.45c0,1.12-0.87,1.72-2.17,1.72h-2.31v1.64h-1.16V7.73h3.47C41.48,7.73,42.35,8.34,42.35,9.45z
				 M41.17,9.46c0-0.58-0.43-0.75-1.09-0.75h-2.21v1.51h2.21C40.74,10.21,41.17,10.04,41.17,9.46z"/>
			<path class="st7" d="M48.7,11.83v0.97h-5.22V7.73h5.15V8.7h-3.99v1.04h3.34v0.97h-3.34v1.11H48.7z"/>
			<path class="st7" d="M54.46,12.8L53,11.08h-1.83v1.72h-1.15V7.73h3.49c1.24,0,2.17,0.57,2.17,1.67c0,0.86-0.57,1.4-1.41,1.59
				l1.56,1.8H54.46z M53.45,10.12c0.61,0,1.06-0.14,1.06-0.71c0-0.56-0.45-0.71-1.06-0.71h-2.29v1.42H53.45z"/>
			<path class="st7" d="M63.87,11.8v1h-4.74V7.73h1.16v4.07H63.87z"/>
			<path class="st7" d="M69.43,11.73h-3.06l-0.54,1.07h-1.24l2.68-5.07h1.27l2.68,5.07h-1.25L69.43,11.73z M68.94,10.79l-1.05-2.06
				l-1.05,2.06H68.94z"/>
			<path class="st7" d="M77.98,11.41c0,0.9-0.77,1.39-1.98,1.39h-3.77V7.73h3.48c1.22,0,1.98,0.48,1.98,1.3
				c0,0.58-0.38,1.07-1.13,1.12C77.35,10.19,77.98,10.61,77.98,11.41z M73.37,9.79h2.15c0.63,0,1.02-0.1,1.02-0.57
				c0-0.46-0.39-0.57-1.02-0.57h-2.15V9.79z M76.79,11.28c0-0.51-0.38-0.61-1.03-0.61h-2.39v1.22h2.39
				C76.41,11.89,76.79,11.79,76.79,11.28z"/>
			<path class="st7" d="M84.71,11.27c0,1-0.95,1.69-2.74,1.69c-1.28,0-2.32-0.36-3.1-1.02l0.67-0.79c0.62,0.57,1.43,0.84,2.46,0.84
				c1.03,0,1.55-0.2,1.55-0.62c0-0.42-0.52-0.54-1.69-0.64c-1.45-0.12-2.79-0.44-2.79-1.53c0-1.06,1.13-1.64,2.69-1.64
				c1.11,0,2.06,0.28,2.71,0.77l-0.64,0.8c-0.56-0.43-1.24-0.6-2.07-0.61c-0.69-0.01-1.53,0.12-1.53,0.58
				c0,0.43,0.72,0.48,1.73,0.56C83.58,9.81,84.71,10.15,84.71,11.27z"/>
		</g>
	</g>
</g>
</svg>
